<?xml version="1.0" encoding="utf-8"?>
<!-- Generator: Adobe Illustrator 24.0.1, SVG Export Plug-In . SVG Version: 6.00 Build 0)  -->
<svg version="1.1" id="Layer_1" xmlns="http://www.w3.org/2000/svg" xmlns:xlink="http://www.w3.org/1999/xlink" x="0px" y="0px"
	 viewBox="0 0 1080 1080" style="enable-background:new 0 0 1080 1080;" xml:space="preserve">
<style type="text/css">
	.st0{fill:#547DBE;}
	.st1{fill:#34A751;}
	.st2{fill:#E94435;}
	.st3{fill:#F8BE14;}
	.st4{fill:#FFFFFF;}
	.st5{fill:#2EA850;}
</style>
<g>
	<g>
		<g>
			<path class="st0" d="M739.95,341.09L540.28,545.44l204.63,199.38C853.21,631.23,851.01,451.97,739.95,341.09z"/>
			<path class="st1" d="M330.5,341.04l204.63,199.38l199.67-204.35C621.06,227.92,441.54,230.13,330.5,341.04z"/>
			<path class="st2" d="M330.43,749.92l199.67-204.35L325.47,346.19C217.16,459.77,219.36,639.04,330.43,749.92z"/>
			<path class="st3" d="M335.58,754.95c113.74,108.15,293.25,105.94,404.29-4.98L535.25,550.59L335.58,754.95z"/>
		</g>
		<g>
			<g>
				<path class="st4" d="M601.37,695.66c-5.91-0.49-11.46,4.02-12.52,10.15c-0.99,5.74-1.99,11.48-3.02,17.21
					c-0.78,4.34-4.14,7.27-8.55,7.38c-24.33,0.59-48.66,1.16-73,1.72c-4.56,0.1-8-2.71-8.99-7.18c-1.26-5.69-2.47-11.39-3.84-17.05
					c-1.18-4.87-4.33-8.04-9.22-9.09c-4.98-1.06-9.18,0.61-12.14,4.73c-1.11,1.55-1.58,3.57-2.33,5.37c0.04,1.6,0.08,3.2,0.11,4.8
					c0.1,0.4,0.24,0.8,0.28,1.21c0.42,4.74,0.82,9.47,1.25,14.21c0.27,3.05,0.32,6.14,0.93,9.13c1.86,9.18,9.4,15.05,18.78,14.83
					c22.3-0.51,44.61-1.04,66.91-1.57c12.83-0.3,25.65-0.54,38.48-0.94c9.07-0.28,16.78-8.15,17.1-17.17
					c0.12-3.43,0.31-6.87,0.45-10.3c0.21-5.17,0.56-10.35,0.58-15.52C612.64,701.13,607.85,696.2,601.37,695.66z"/>
				<path class="st4" d="M481.65,694.1c6.95,0.91,12.43,5.66,14.09,12.48c1.35,5.57,2.56,11.17,3.8,16.76
					c0.71,3.19,2.08,4.35,5.29,4.28c23.9-0.56,47.81-1.12,71.71-1.69c3.01-0.07,4.4-1.25,4.93-4.18c0.89-4.95,1.82-9.89,2.56-14.86
					c1.14-7.69,4.99-13.04,12.7-15.25c0.32-0.09,0.72-0.48,0.79-0.8c0.75-3.63,1-7.25-0.12-10.87c-2.55-8.27-9.98-13.67-18.76-13.49
					c-13.39,0.28-26.78,0.62-40.17,0.94c-13.15,0.31-26.31,0.61-39.46,0.95c-1.55,0.04-3.12,0.16-4.62,0.52
					c-10.99,2.62-17.17,13.46-13.85,24.29C480.64,693.57,481.23,694.04,481.65,694.1z"/>
				<path class="st4" d="M487.72,757.67c-0.32,0.01-0.81,0.45-0.89,0.78c-0.43,1.72-0.85,3.46-1.11,5.22
					c-0.52,3.5,1.77,6.73,5.17,7.45c3.53,0.74,6.96-1.22,7.9-4.68c0.79-2.93,1.38-5.92,2.12-9.11
					C496.37,757.43,492.05,757.52,487.72,757.67z"/>
				<path class="st4" d="M581.77,755.48c0.91,3.19,1.66,6.33,2.72,9.37c0.96,2.77,4.09,4.49,6.87,4.11
					c3.21-0.44,5.85-2.74,5.85-5.87c0-2.65-0.82-5.31-1.28-7.95C591.04,755.26,586.49,755.37,581.77,755.48z"/>
			</g>
			<g>
				<path class="st4" d="M435.84,547.51c-20.99-18.11-41.97-36.23-62.96-54.34c-3.14-2.71-6.28-5.41-9.49-8.17
					c-24.12,22.24-48.17,44.42-72.21,66.59c1.86,2.86,4.47,4.03,7.67,3.46c2.81-0.5,4.99-2.15,7.06-3.98
					c16.09-14.24,32.17-28.49,48.26-42.74c3.17-2.81,6.35-5.62,9.55-8.45c0.49,0.39,0.89,0.71,1.28,1.04
					c18.14,15.49,36.25,31,54.44,46.43c1.69,1.44,3.73,2.59,5.79,3.46c3.91,1.66,7.89,1.54,11.07-2.68c0-0.09,0-0.19-0.01-0.28
					C436.14,547.73,435.98,547.63,435.84,547.51z"/>
				<path class="st4" d="M413.49,551.5c-12.04-10.12-24.03-20.3-36.03-30.46c-4.61-3.9-9.22-7.8-13.91-11.77
					c-0.27,0.2-0.43,0.3-0.57,0.43c-17.11,15.01-34.22,30.02-51.3,45.07c-0.41,0.36-0.69,1.12-0.68,1.69
					c0.39,18.12,0.82,36.24,1.25,54.36c0.07,3.01,1.08,3.92,4.12,3.85c11.34-0.27,22.68-0.55,34.02-0.82c0.5-0.01,1-0.02,1.66-0.04
					c-0.02-0.74-0.03-1.3-0.04-1.85c-0.2-9.48-0.41-18.97-0.61-28.45c-0.06-3.03,1.26-4.54,4.23-4.64
					c5.01-0.18,10.02-0.31,15.02-0.35c3.79-0.03,5.41,1.65,5.49,5.43c0.2,9.11,0.4,18.21,0.6,27.32c0.01,0.55,0.03,1.11,0.04,1.75
					c0.6,0.02,1.07,0.05,1.53,0.04c11.1-0.26,22.21-0.52,33.31-0.78c0.57-0.01,1.13-0.08,1.69-0.14c1.48-0.18,2.42-1.04,2.78-2.44
					c0.21-0.81,0.27-1.67,0.26-2.51c-0.39-17.36-0.82-34.73-1.18-52.09C415.15,553.52,414.69,552.51,413.49,551.5z"/>
				<path class="st4" d="M405.08,516.8c4.1,3.41,8.27,6.73,12.42,10.07c0.31,0.25,0.66,0.46,1.14,0.8
					c-0.23-9.83-0.46-19.46-0.69-29.17c-4.75,0.11-9.45,0.22-14.27,0.34c0.13,5.44,0.22,10.72,0.42,15.99
					C404.13,515.51,404.56,516.37,405.08,516.8z"/>
			</g>
			<path class="st4" d="M599.04,364.59c-0.52-3.51-1.81-6.12-5.4-7.29c-1.72-0.56-3.32-1.47-5.13-2.29c1.44-0.68,2.19-1.7,2.21-3.16
				c0.01-1.08,0.02-2.18-0.11-3.25c-0.21-1.74-0.76-2.17-2.52-2.15c-2.08,0.03-4.16,0.03-6.24,0.17c-0.97,0.06-1.41-0.28-1.79-1.14
				c-1.01-2.23-2.21-4.38-3.22-6.6c-2.44-5.34-6.72-8.49-12.13-10.32c-7.88-2.66-16.07-3.34-24.29-3.33
				c-7.84,0.01-15.68,0.31-23.5,0.85c-6.5,0.45-12.92,1.61-19.03,4.05c-5.06,2.01-9.13,5.03-11.21,10.31
				c-0.93,2.36-2.2,4.6-3.14,6.96c-0.5,1.26-1.21,1.65-2.51,1.61c-1.98-0.06-3.98-0.01-5.95,0.16c-0.66,0.06-1.56,0.46-1.85,0.98
				c-1.24,2.25-0.16,6.16,1.99,7.58c-2.66,1.52-5.29,2.91-7.79,4.5c-0.75,0.47-1.47,1.43-1.64,2.28c-0.49,2.34-0.84,4.74-0.97,7.13
				c-0.68,12.47,0.16,24.91,1.21,37.33c0.11,1.25,0.27,2.49,0.42,3.83c1.18-0.03,2.2-0.05,3.22-0.08c0.13,0.91,0.25,1.7,0.35,2.5
				c0.17,1.35,0.9,1.97,2.29,1.93c7.47-0.2,14.93-0.35,22.4-0.54c1.52-0.04,2.09-0.61,2.23-2.16c0.07-0.78,0.08-1.57,0.11-2.33
				c24.22-0.57,48.25-1.13,72.36-1.7c0.07,0.87,0.09,1.67,0.22,2.45c0.21,1.28,0.89,1.98,2.31,1.94c7.56-0.21,15.12-0.38,22.68-0.53
				c1.2-0.02,1.71-0.64,1.86-1.7c0.13-0.92,0.2-1.85,0.31-2.94c1.09-0.03,2.15-0.05,3.3-0.08c0.14-4.26,0.3-8.36,0.4-12.45
				C600.73,386.21,600.64,375.38,599.04,364.59z M497.02,374.8c-4.6,0.41-9.19,0.88-13.79,1.22c-2.4,0.18-4.81,0.19-7.22,0.2
				c-1.66,0.01-2.28-0.5-2.42-2.12c-0.16-1.91-0.12-3.84-0.17-5.76c-0.02-0.74,0.24-1.11,1.07-1.11c7.24,0.02,14.16,1.23,20.38,5.2
				c0.81,0.52,1.51,1.21,2.27,1.82C497.09,374.44,497.06,374.62,497.02,374.8z M565.89,393.13c-0.3,1.04-0.64,2.09-1.16,3.02
				c-0.21,0.38-0.94,0.65-1.45,0.66c-10.15,0.27-20.31,0.5-30.46,0.74c-10.06,0.24-20.12,0.45-30.18,0.74
				c-1.06,0.03-1.66-0.21-1.97-1.25c-0.17-0.58-0.54-1.09-0.82-1.64c-1.01-2.02-0.63-3.45,1.52-4.32c3.09-1.25,6.26-2.36,9.45-3.34
				c7.66-2.36,15.49-3.82,23.52-3.76c9.15,0.08,18.14,1.35,26.82,4.38c1.11,0.39,2.19,0.87,3.24,1.4
				C565.95,390.53,566.37,391.48,565.89,393.13z M489.17,356.79c1.95-4,3.63-7.68,5.52-11.25c1.87-3.52,4.85-5.8,8.65-7.09
				c5.71-1.94,11.61-2.88,17.58-3.52c6.97-0.74,13.95-0.91,20.94-0.5c6.32,0.37,12.6,1.03,18.66,2.99c2.97,0.96,5.38,2.69,7.24,5.19
				c2.74,3.7,4.66,7.82,6.51,12.16C546.01,355.46,517.86,356.12,489.17,356.79z M590.93,366.23c-0.09,1.74-0.09,3.48-0.24,5.21
				c-0.15,1.71-0.59,2.08-2.35,2.15c-2.12,0.09-4.25,0.11-6.37,0.16c0,0.03,0,0.06-0.01,0.09c-3.96-0.21-7.91-0.39-11.87-0.65
				c-0.51-0.03-1.29-0.42-1.4-0.79c-0.11-0.41,0.28-1.17,0.68-1.48c2.74-2.14,5.81-3.72,9.21-4.47c3.48-0.76,7.02-1.29,10.54-1.87
				C590.34,364.37,591,364.92,590.93,366.23z"/>
			<g>
				<path class="st4" d="M740.87,540.41c0.41,17.63,0.82,35.25,1.25,52.88c0.09,3.6-0.81,6.76-3.67,9.17
					c-1.91,1.61-4.13,2.32-6.57,2.38c-17.84,0.43-35.67,0.9-53.51,1.24c-6.14,0.12-10.28-3.91-10.73-10.06
					c-0.03-0.38-0.03-0.76-0.04-1.14c-0.83-35.16-1.65-70.31-2.49-105.47c-0.06-2.62,0.27-5.12,1.84-7.32
					c2.06-2.88,4.91-4.29,8.4-4.38c17.84-0.44,35.67-0.9,53.51-1.24c6.4-0.12,10.58,4.18,10.74,10.77
					c0.33,13.11,0.62,26.23,0.93,39.34C740.65,531.19,740.76,535.8,740.87,540.41z M668.35,495.66c0.71,30.35,1.42,60.44,2.13,90.57
					c22.84-0.54,45.59-1.07,68.45-1.61c-0.01-0.64-0.03-1.15-0.04-1.67c-0.68-29.02-1.37-58.05-2.05-87.07
					c-0.04-1.82-0.05-1.83-1.91-1.78c-21.59,0.51-43.18,1.02-64.78,1.52C669.58,495.63,669.02,495.65,668.35,495.66z M738.89,587.84
					c-22.84,0.54-45.58,1.07-68.43,1.61c0.05,2.01,0.08,3.9,0.14,5.79c0.02,0.66,0.06,1.33,0.18,1.98c0.68,3.77,3.7,6.01,8.03,5.91
					c17.49-0.4,34.99-0.82,52.48-1.23c0.47-0.01,0.95-0.05,1.42-0.1c3.41-0.41,6.08-2.92,6.31-6.31
					C739.19,592.99,738.95,590.47,738.89,587.84z M702.31,491.9c4.57-0.11,9.13-0.21,13.7-0.32c6.42-0.15,12.84-0.32,19.27-0.43
					c1.08-0.02,1.56-0.28,1.43-1.45c-0.14-1.27-0.05-2.57-0.19-3.84c-0.3-2.73-1.74-4.77-4.27-5.77c-1.28-0.5-2.78-0.65-4.17-0.62
					c-17.27,0.36-34.54,0.78-51.81,1.19c-0.57,0.01-1.14,0.04-1.71,0.11c-3.5,0.4-6.05,2.93-6.4,6.42
					c-0.13,1.32,0.05,2.66-0.05,3.99c-0.1,1.31,0.42,1.57,1.65,1.53C680.61,492.39,691.46,492.15,702.31,491.9z"/>
				<path class="st4" d="M683.05,522.98c-1.38,0.03-2.76,0.11-4.13,0.09c-2.26-0.04-3.8-1.44-3.92-3.69
					c-0.15-2.84-0.21-5.69-0.2-8.54c0.01-2.2,1.52-3.77,3.75-3.89c2.8-0.15,5.6-0.21,8.41-0.2c2.37,0.01,3.89,1.54,3.99,3.93
					c0.11,2.7,0.18,5.41,0.19,8.11c0.01,2.5-1.42,3.96-3.95,4.09C685.8,522.95,684.42,522.95,683.05,522.98
					C683.05,522.98,683.05,522.98,683.05,522.98z M677.84,514.94c0.03,1.28,0.08,2.56,0.08,3.85c0.01,0.87,0.37,1.34,1.28,1.32
					c2.62-0.06,5.23-0.08,7.84-0.24c0.39-0.02,1.06-0.73,1.06-1.13c0.04-2.61-0.07-5.22-0.13-7.84c-0.02-0.82-0.43-1.21-1.26-1.19
					c-2.57,0.07-5.14,0.13-7.7,0.18c-0.9,0.02-1.29,0.46-1.26,1.34C677.8,512.47,677.82,513.7,677.84,514.94z"/>
				<path class="st4" d="M723.19,522.03c-1.42,0.03-2.85,0.12-4.27,0.09c-2.28-0.05-3.76-1.43-3.87-3.71
					c-0.14-2.84-0.2-5.69-0.2-8.54c0-2.15,1.44-3.72,3.61-3.84c2.89-0.17,5.79-0.24,8.69-0.21c2.15,0.02,3.7,1.53,3.81,3.66
					c0.15,2.84,0.22,5.69,0.21,8.54c-0.01,2.31-1.5,3.77-3.85,3.91C725.95,522.01,724.57,522,723.19,522.03
					C723.19,522.03,723.19,522.03,723.19,522.03z M723.09,519.07c1.28-0.03,2.57-0.07,3.85-0.09c0.88-0.02,1.3-0.43,1.27-1.33
					c-0.07-2.52-0.13-5.03-0.18-7.55c-0.02-0.96-0.46-1.37-1.41-1.34c-2.52,0.08-5.04,0.14-7.56,0.18
					c-0.91,0.02-1.28,0.46-1.26,1.34c0.07,2.52,0.13,5.03,0.17,7.55c0.01,0.97,0.46,1.37,1.41,1.33
					C720.61,519.12,721.85,519.1,723.09,519.07z"/>
				<path class="st4" d="M691.58,537.52c0.03,1.42,0.12,2.85,0.09,4.27c-0.05,2.28-1.43,3.76-3.71,3.87c-2.85,0.14-5.7,0.2-8.55,0.2
					c-2.18,0-3.73-1.43-3.86-3.59c-0.16-2.89-0.22-5.79-0.21-8.68c0.01-2.13,1.5-3.7,3.65-3.83c2.84-0.16,5.7-0.23,8.55-0.21
					c2.31,0.01,3.8,1.54,3.94,3.84C691.55,534.77,691.55,536.15,691.58,537.52z M683.43,532.6c-1.24,0.03-2.47,0.08-3.71,0.08
					c-1.02,0-1.47,0.44-1.43,1.47c0.08,2.47,0.14,4.94,0.17,7.41c0.01,0.96,0.44,1.38,1.4,1.35c2.52-0.07,5.04-0.13,7.56-0.18
					c0.88-0.02,1.31-0.4,1.28-1.31c-0.07-2.52-0.14-5.03-0.17-7.55c-0.02-1.06-0.54-1.41-1.54-1.36
					C685.81,532.58,684.62,532.58,683.43,532.6z"/>
				<path class="st4" d="M723.74,544.84c-1.42,0.03-2.85,0.12-4.27,0.09c-2.29-0.04-3.78-1.42-3.89-3.7
					c-0.14-2.84-0.2-5.69-0.2-8.54c0-2.15,1.43-3.73,3.6-3.86c2.89-0.17,5.79-0.24,8.69-0.21c2.21,0.02,3.74,1.56,3.84,3.79
					c0.13,2.8,0.21,5.6,0.19,8.4c-0.01,2.32-1.49,3.78-3.84,3.92C726.5,544.82,725.12,544.81,723.74,544.84
					C723.74,544.84,723.74,544.84,723.74,544.84z M718.42,536.81c0.03,1.28,0.08,2.56,0.09,3.85c0.01,0.87,0.37,1.34,1.28,1.31
					c2.57-0.07,5.14-0.12,7.7-0.18c0.89-0.02,1.28-0.45,1.26-1.34c-0.08-2.52-0.14-5.03-0.18-7.55c-0.02-0.97-0.48-1.36-1.43-1.33
					c-2.47,0.08-4.95,0.14-7.42,0.17c-1.06,0.01-1.44,0.5-1.39,1.51C718.38,534.43,718.39,535.62,718.42,536.81z"/>
				<path class="st4" d="M692.12,560.36c0.03,1.38,0.1,2.75,0.09,4.13c-0.03,2.37-1.4,3.88-3.74,3.99c-2.85,0.14-5.7,0.2-8.55,0.2
					c-2.17-0.01-3.72-1.44-3.84-3.61c-0.16-2.89-0.22-5.79-0.2-8.68c0.01-2.12,1.52-3.69,3.67-3.81c2.84-0.16,5.7-0.23,8.55-0.21
					c2.3,0.02,3.79,1.55,3.92,3.86C692.09,557.6,692.08,558.98,692.12,560.36z M689.15,560.35c-0.03-1.23-0.07-2.47-0.08-3.7
					c-0.01-0.96-0.47-1.36-1.42-1.33c-2.47,0.08-4.95,0.14-7.42,0.17c-1.04,0.01-1.43,0.5-1.4,1.51c0.09,2.47,0.14,4.94,0.18,7.41
					c0.01,0.88,0.38,1.33,1.29,1.31c2.57-0.06,5.14-0.13,7.7-0.18c0.9-0.02,1.28-0.46,1.25-1.34
					C689.19,562.92,689.18,561.63,689.15,560.35z"/>
				<path class="st4" d="M724.12,567.65c-1.38,0.03-2.76,0.12-4.13,0.09c-2.28-0.05-3.76-1.43-3.87-3.71
					c-0.14-2.84-0.2-5.69-0.2-8.54c0-2.14,1.46-3.72,3.62-3.84c2.89-0.17,5.79-0.24,8.69-0.21c2.15,0.02,3.7,1.53,3.81,3.66
					c0.15,2.84,0.22,5.69,0.21,8.54c-0.01,2.31-1.5,3.77-3.85,3.91C726.97,567.63,725.54,567.62,724.12,567.65
					C724.12,567.65,724.12,567.65,724.12,567.65z M729.19,559.49c-0.03-1.23-0.08-2.47-0.08-3.7c0-1.03-0.48-1.44-1.5-1.41
					c-2.47,0.09-4.94,0.13-7.42,0.18c-0.86,0.02-1.35,0.37-1.33,1.28c0.06,2.61,0.08,5.23,0.24,7.83c0.02,0.39,0.74,1.05,1.14,1.06
					c2.61,0.04,5.23-0.07,7.84-0.13c0.81-0.02,1.21-0.44,1.19-1.26C729.24,562.05,729.22,560.77,729.19,559.49z"/>
				<path class="st4" d="M711.03,514.32c0.03,1.38,0.11,2.75,0.09,4.13c-0.04,2.35-1.44,3.84-3.8,3.94
					c-2.75,0.13-5.51,0.19-8.27,0.2c-2.42,0.01-3.9-1.44-4.01-3.88c-0.12-2.7-0.18-5.41-0.19-8.11c-0.01-2.45,1.48-4.03,3.94-4.14
					c2.66-0.12,5.32-0.18,7.98-0.19c2.47-0.01,4.02,1.49,4.15,3.93C711,511.57,711,512.95,711.03,514.32z M708.06,514.36
					c-0.03-1.23-0.08-2.47-0.08-3.7c0-0.99-0.39-1.48-1.45-1.43c-2.42,0.1-4.84,0.15-7.26,0.17c-1.01,0.01-1.49,0.38-1.46,1.43
					c0.08,2.51,0.14,5.02,0.18,7.54c0.02,0.89,0.4,1.3,1.3,1.27c2.52-0.07,5.03-0.14,7.55-0.17c0.98-0.01,1.36-0.46,1.32-1.41
					C708.1,516.83,708.09,515.59,708.06,514.36z"/>
				<path class="st4" d="M711.56,537.03c0.03,1.38,0.1,2.75,0.09,4.13c-0.02,2.44-1.41,3.95-3.84,4.05
					c-2.75,0.12-5.51,0.19-8.27,0.19c-2.36,0-3.85-1.42-3.96-3.77c-0.13-2.8-0.19-5.6-0.19-8.4c0-2.22,1.46-3.81,3.68-3.94
					c2.85-0.16,5.7-0.23,8.55-0.2c2.22,0.03,3.69,1.56,3.82,3.8C711.53,534.27,711.53,535.65,711.56,537.03
					C711.56,537.03,711.56,537.03,711.56,537.03z M698.44,537.41c0.03,1.28,0.07,2.56,0.09,3.84c0.01,0.82,0.39,1.22,1.23,1.2
					c2.56-0.07,5.13-0.13,7.69-0.18c0.91-0.02,1.27-0.45,1.24-1.33c-0.08-2.51-0.14-5.02-0.18-7.54c-0.01-1.05-0.51-1.4-1.52-1.36
					c-2.42,0.09-4.84,0.15-7.26,0.17c-1.07,0.01-1.43,0.51-1.38,1.5C698.4,534.94,698.41,536.17,698.44,537.41z"/>
				<path class="st4" d="M712.09,559.86c0.03,1.42,0.12,2.85,0.09,4.27c-0.04,2.27-1.43,3.76-3.72,3.87c-2.8,0.14-5.61,0.2-8.41,0.2
					c-2.29,0-3.81-1.4-3.92-3.66c-0.14-2.84-0.2-5.69-0.2-8.54c0-2.21,1.48-3.79,3.71-3.91c2.8-0.15,5.61-0.22,8.41-0.2
					c2.3,0.01,3.81,1.54,3.94,3.84C712.07,557.11,712.06,558.49,712.09,559.86z M698.98,560.21c0.03,1.23,0.08,2.47,0.08,3.7
					c0,0.95,0.39,1.38,1.38,1.35c2.51-0.08,5.03-0.14,7.55-0.18c0.91-0.02,1.27-0.45,1.25-1.33c-0.07-2.51-0.14-5.02-0.17-7.54
					c-0.01-1.05-0.51-1.4-1.52-1.36c-2.42,0.09-4.84,0.15-7.26,0.17c-1.06,0.01-1.44,0.49-1.39,1.49
					C698.94,557.74,698.95,558.98,698.98,560.21z"/>
				<path class="st4" d="M701.99,595.41c0.05-1.6,1.38-2.84,2.99-2.79c1.6,0.05,2.84,1.37,2.8,2.99c-0.05,1.59-1.4,2.86-2.99,2.81
					C703.2,598.35,701.94,597,701.99,595.41z"/>
				<path class="st4" d="M697.58,484.67c2.42-0.06,4.84-0.11,7.27-0.17c1.07-0.03,1.98,0.27,1.97,1.51
					c-0.01,1.15-0.9,1.45-1.89,1.48c-4.89,0.12-9.78,0.24-14.68,0.36c-1.05,0.02-2.01-0.25-2.04-1.46
					c-0.03-1.21,0.89-1.52,1.96-1.54C692.65,484.8,695.12,484.73,697.58,484.67z"/>
				<path class="st4" d="M712.24,487.98c-1.18,0.05-2.2-0.87-2.27-2.04c-0.07-1.24,0.91-2.3,2.15-2.32c1.19-0.01,2.17,0.93,2.2,2.12
					C714.35,486.93,713.42,487.93,712.24,487.98z"/>
			</g>
		</g>
	</g>
	<path class="st5" d="M995.88,509.9c-1.37-45.46-9.57-89.14-23.61-130.08c-50.4-152-177.94-261.51-344.03-298.05
		c-98.57-21.68-191.33-9-271.83,27.44C184.37,173.46,63.84,341.44,68.69,535.35l1.05,42.15c6.12,244.43,209.22,437.61,453.65,431.5
		l210.21-5.26c89.49,1.47,178.9,1.58,267.39,4.67c0.04-0.16,0.08-0.28,0.12-0.44l10.89,0.16l-0.93-37.01
		c0.01-0.32,0.06-0.65,0.05-0.97C1006.52,816.71,1007.85,662.71,995.88,509.9z M924.87,917.05l-71.39,1.79l-66.9-65.52l-54.19-53.07
		c-52.46,40.68-117.67,65.86-189.13,67.65c-178.05,4.45-326-136.27-330.46-314.33c-3.25-129.88,70.93-243.46,180.32-297.29
		c2.85-1.4,5.58-3.03,8.48-4.35c0.69-0.31,1.39-0.59,2.09-0.9c34.75-16.34,72.76-26.76,112.83-29.43
		c18.8-1.25,37.39-0.42,55.68,1.86c2.83,0.36,5.69,0.64,8.5,1.08c7.5,1.16,14.92,2.67,22.28,4.38c2.27,0.52,4.54,1,6.79,1.57
		c14.58,3.76,28.79,8.7,42.63,14.53c0.52,0.2,1.04,0.4,1.55,0.6c2,0.79,3.88,1.81,5.86,2.64
		c113.44,47.65,194.5,158.19,197.77,289.17c1.85,74.14-21.73,142.86-62.43,198.37l63.97,54.75l63.95,54.74L924.87,917.05z"/>
</g>
</svg>
