<?xml version="1.0" encoding="utf-8"?>
<!-- Generator: Adobe Illustrator 24.0.1, SVG Export Plug-In . SVG Version: 6.00 Build 0)  -->
<svg version="1.1" id="Layer_1" xmlns="http://www.w3.org/2000/svg" xmlns:xlink="http://www.w3.org/1999/xlink" x="0px" y="0px"
	 viewBox="0 0 797.32 199.28" style="enable-background:new 0 0 797.32 199.28;" xml:space="preserve">
<style type="text/css">
	.st0{fill:#547DBE;}
	.st1{fill:#34A751;}
	.st2{fill:#E94435;}
	.st3{fill:#F8BE14;}
	.st4{fill:#FFFFFF;}
	.st5{fill:#2EA850;}
</style>
<g>
	<g>
		<g>
			<g>
				<path class="st0" d="M551.39,96.74l-23.33,23.88l23.91,23.3C564.62,130.64,564.36,109.69,551.39,96.74z"/>
				<path class="st1" d="M503.54,96.73l23.91,23.3l23.33-23.88C537.49,83.51,516.52,83.77,503.54,96.73z"/>
				<path class="st2" d="M503.53,144.51l23.33-23.88l-23.91-23.3C490.3,110.61,490.56,131.55,503.53,144.51z"/>
				<path class="st3" d="M504.14,145.1c13.29,12.64,34.27,12.38,47.24-0.58l-23.91-23.3L504.14,145.1z"/>
			</g>
			<g>
				<g>
					<path class="st4" d="M535.19,138.17c-0.69-0.06-1.34,0.47-1.46,1.19c-0.12,0.67-0.23,1.34-0.35,2.01
						c-0.09,0.51-0.48,0.85-1,0.86c-2.84,0.07-5.69,0.14-8.53,0.2c-0.53,0.01-0.93-0.32-1.05-0.84c-0.15-0.66-0.29-1.33-0.45-1.99
						c-0.14-0.57-0.51-0.94-1.08-1.06c-0.58-0.12-1.07,0.07-1.42,0.55c-0.13,0.18-0.18,0.42-0.27,0.63c0,0.19,0.01,0.37,0.01,0.56
						c0.01,0.05,0.03,0.09,0.03,0.14c0.05,0.55,0.1,1.11,0.15,1.66c0.03,0.36,0.04,0.72,0.11,1.07c0.22,1.07,1.1,1.76,2.19,1.73
						c2.61-0.06,5.21-0.12,7.82-0.18c1.5-0.04,3-0.06,4.5-0.11c1.06-0.03,1.96-0.95,2-2.01c0.01-0.4,0.04-0.8,0.05-1.2
						c0.02-0.6,0.07-1.21,0.07-1.81C536.51,138.81,535.95,138.23,535.19,138.17z"/>
					<path class="st4" d="M521.2,137.99c0.81,0.11,1.45,0.66,1.65,1.46c0.16,0.65,0.3,1.31,0.44,1.96c0.08,0.37,0.24,0.51,0.62,0.5
						c2.79-0.06,5.59-0.13,8.38-0.2c0.35-0.01,0.51-0.15,0.58-0.49c0.1-0.58,0.21-1.16,0.3-1.74c0.13-0.9,0.58-1.52,1.48-1.78
						c0.04-0.01,0.08-0.06,0.09-0.09c0.09-0.42,0.12-0.85-0.01-1.27c-0.3-0.97-1.17-1.6-2.19-1.58c-1.56,0.03-3.13,0.07-4.69,0.11
						c-1.54,0.04-3.07,0.07-4.61,0.11c-0.18,0-0.36,0.02-0.54,0.06c-1.28,0.31-2.01,1.57-1.62,2.84
						C521.09,137.93,521.16,137.98,521.2,137.99z"/>
					<path class="st4" d="M521.91,145.41c-0.04,0-0.09,0.05-0.1,0.09c-0.05,0.2-0.1,0.4-0.13,0.61c-0.06,0.41,0.21,0.79,0.6,0.87
						c0.41,0.09,0.81-0.14,0.92-0.55c0.09-0.34,0.16-0.69,0.25-1.06C522.92,145.39,522.42,145.4,521.91,145.41z"/>
					<path class="st4" d="M532.9,145.16c0.11,0.37,0.19,0.74,0.32,1.1c0.11,0.32,0.48,0.52,0.8,0.48c0.37-0.05,0.68-0.32,0.68-0.69
						c0-0.31-0.1-0.62-0.15-0.93C533.99,145.13,533.45,145.15,532.9,145.16z"/>
				</g>
				<g>
					<path class="st4" d="M515.85,120.86c-2.45-2.12-4.9-4.23-7.36-6.35c-0.37-0.32-0.73-0.63-1.11-0.95
						c-2.82,2.6-5.63,5.19-8.44,7.78c0.22,0.33,0.52,0.47,0.9,0.4c0.33-0.06,0.58-0.25,0.82-0.46c1.88-1.66,3.76-3.33,5.64-4.99
						c0.37-0.33,0.74-0.66,1.12-0.99c0.06,0.05,0.1,0.08,0.15,0.12c2.12,1.81,4.24,3.62,6.36,5.42c0.2,0.17,0.44,0.3,0.68,0.4
						c0.46,0.19,0.92,0.18,1.29-0.31c0-0.01,0-0.02,0-0.03C515.89,120.88,515.87,120.87,515.85,120.86z"/>
					<path class="st4" d="M513.24,121.32c-1.41-1.18-2.81-2.37-4.21-3.56c-0.54-0.46-1.08-0.91-1.63-1.38
						c-0.03,0.02-0.05,0.04-0.07,0.05c-2,1.75-4,3.51-5.99,5.27c-0.05,0.04-0.08,0.13-0.08,0.2c0.05,2.12,0.1,4.23,0.15,6.35
						c0.01,0.35,0.13,0.46,0.48,0.45c1.33-0.03,2.65-0.06,3.98-0.1c0.06,0,0.12,0,0.19,0c0-0.09,0-0.15-0.01-0.22
						c-0.02-1.11-0.05-2.22-0.07-3.32c-0.01-0.35,0.15-0.53,0.49-0.54c0.58-0.02,1.17-0.04,1.76-0.04c0.44,0,0.63,0.19,0.64,0.63
						c0.02,1.06,0.05,2.13,0.07,3.19c0,0.06,0,0.13,0,0.2c0.07,0,0.12,0.01,0.18,0.01c1.3-0.03,2.59-0.06,3.89-0.09
						c0.07,0,0.13-0.01,0.2-0.02c0.17-0.02,0.28-0.12,0.33-0.29c0.02-0.09,0.03-0.2,0.03-0.29c-0.05-2.03-0.1-4.06-0.14-6.09
						C513.43,121.56,513.38,121.44,513.24,121.32z"/>
					<path class="st4" d="M512.26,117.27c0.48,0.4,0.97,0.79,1.45,1.18c0.04,0.03,0.08,0.05,0.13,0.09
						c-0.03-1.15-0.05-2.27-0.08-3.41c-0.56,0.01-1.1,0.03-1.67,0.04c0.01,0.64,0.03,1.25,0.05,1.87
						C512.15,117.12,512.2,117.22,512.26,117.27z"/>
				</g>
				<path class="st4" d="M534.92,99.48c-0.06-0.41-0.21-0.71-0.63-0.85c-0.2-0.07-0.39-0.17-0.6-0.27c0.17-0.08,0.26-0.2,0.26-0.37
					c0-0.13,0-0.25-0.01-0.38c-0.02-0.2-0.09-0.25-0.29-0.25c-0.24,0-0.49,0-0.73,0.02c-0.11,0.01-0.16-0.03-0.21-0.13
					c-0.12-0.26-0.26-0.51-0.38-0.77c-0.29-0.62-0.79-0.99-1.42-1.21c-0.92-0.31-1.88-0.39-2.84-0.39c-0.92,0-1.83,0.04-2.75,0.1
					c-0.76,0.05-1.51,0.19-2.22,0.47c-0.59,0.24-1.07,0.59-1.31,1.2c-0.11,0.28-0.26,0.54-0.37,0.81c-0.06,0.15-0.14,0.19-0.29,0.19
					c-0.23-0.01-0.46,0-0.7,0.02c-0.08,0.01-0.18,0.05-0.22,0.11c-0.14,0.26-0.02,0.72,0.23,0.89c-0.31,0.18-0.62,0.34-0.91,0.53
					c-0.09,0.06-0.17,0.17-0.19,0.27c-0.06,0.27-0.1,0.55-0.11,0.83c-0.08,1.46,0.02,2.91,0.14,4.36c0.01,0.15,0.03,0.29,0.05,0.45
					c0.14,0,0.26-0.01,0.38-0.01c0.02,0.11,0.03,0.2,0.04,0.29c0.02,0.16,0.1,0.23,0.27,0.23c0.87-0.02,1.74-0.04,2.62-0.06
					c0.18,0,0.24-0.07,0.26-0.25c0.01-0.09,0.01-0.18,0.01-0.27c2.83-0.07,5.64-0.13,8.45-0.2c0.01,0.1,0.01,0.2,0.03,0.29
					c0.02,0.15,0.1,0.23,0.27,0.23c0.88-0.02,1.77-0.04,2.65-0.06c0.14,0,0.2-0.08,0.22-0.2c0.02-0.11,0.02-0.22,0.04-0.34
					c0.13,0,0.25-0.01,0.39-0.01c0.02-0.5,0.04-0.98,0.05-1.46C535.12,102.01,535.11,100.74,534.92,99.48z M523,100.68
					c-0.54,0.05-1.07,0.1-1.61,0.14c-0.28,0.02-0.56,0.02-0.84,0.02c-0.19,0-0.27-0.06-0.28-0.25c-0.02-0.22-0.01-0.45-0.02-0.67
					c0-0.09,0.03-0.13,0.12-0.13c0.85,0,1.65,0.14,2.38,0.61c0.09,0.06,0.18,0.14,0.26,0.21C523.01,100.63,523,100.66,523,100.68z
					 M531.05,102.82c-0.04,0.12-0.07,0.24-0.14,0.35c-0.02,0.04-0.11,0.08-0.17,0.08c-1.19,0.03-2.37,0.06-3.56,0.09
					c-1.18,0.03-2.35,0.05-3.53,0.09c-0.12,0-0.19-0.02-0.23-0.15c-0.02-0.07-0.06-0.13-0.1-0.19c-0.12-0.24-0.07-0.4,0.18-0.5
					c0.36-0.15,0.73-0.28,1.1-0.39c0.89-0.28,1.81-0.45,2.75-0.44c1.07,0.01,2.12,0.16,3.13,0.51c0.13,0.05,0.26,0.1,0.38,0.16
					C531.05,102.52,531.1,102.63,531.05,102.82z M522.08,98.57c0.23-0.47,0.42-0.9,0.65-1.31c0.22-0.41,0.57-0.68,1.01-0.83
					c0.67-0.23,1.36-0.34,2.05-0.41c0.81-0.09,1.63-0.11,2.45-0.06c0.74,0.04,1.47,0.12,2.18,0.35c0.35,0.11,0.63,0.31,0.85,0.61
					c0.32,0.43,0.54,0.91,0.76,1.42C528.72,98.42,525.44,98.49,522.08,98.57z M533.97,99.68c-0.01,0.2-0.01,0.41-0.03,0.61
					c-0.02,0.2-0.07,0.24-0.27,0.25c-0.25,0.01-0.5,0.01-0.74,0.02c0,0,0,0.01,0,0.01c-0.46-0.02-0.92-0.05-1.39-0.08
					c-0.06,0-0.15-0.05-0.16-0.09c-0.01-0.05,0.03-0.14,0.08-0.17c0.32-0.25,0.68-0.43,1.08-0.52c0.41-0.09,0.82-0.15,1.23-0.22
					C533.9,99.46,533.98,99.52,533.97,99.68z"/>
				<g>
					<path class="st4" d="M551.49,120.03c0.05,2.06,0.1,4.12,0.15,6.18c0.01,0.42-0.09,0.79-0.43,1.07
						c-0.22,0.19-0.48,0.27-0.77,0.28c-2.08,0.05-4.17,0.1-6.25,0.14c-0.72,0.01-1.2-0.46-1.25-1.18c0-0.04,0-0.09,0-0.13
						c-0.1-4.11-0.19-8.22-0.29-12.32c-0.01-0.31,0.03-0.6,0.22-0.86c0.24-0.34,0.57-0.5,0.98-0.51c2.08-0.05,4.17-0.11,6.25-0.14
						c0.75-0.01,1.24,0.49,1.26,1.26c0.04,1.53,0.07,3.06,0.11,4.6C551.47,118.95,551.48,119.49,551.49,120.03z M543.02,114.8
						c0.08,3.55,0.17,7.06,0.25,10.58c2.67-0.06,5.33-0.13,8-0.19c0-0.07,0-0.13,0-0.19c-0.08-3.39-0.16-6.78-0.24-10.17
						c-0.01-0.21-0.01-0.21-0.22-0.21c-2.52,0.06-5.05,0.12-7.57,0.18C543.16,114.8,543.1,114.8,543.02,114.8z M551.26,125.57
						c-2.67,0.06-5.33,0.13-8,0.19c0.01,0.23,0.01,0.46,0.02,0.68c0,0.08,0.01,0.16,0.02,0.23c0.08,0.44,0.43,0.7,0.94,0.69
						c2.04-0.05,4.09-0.1,6.13-0.14c0.06,0,0.11-0.01,0.17-0.01c0.4-0.05,0.71-0.34,0.74-0.74
						C551.3,126.17,551.27,125.88,551.26,125.57z M546.99,114.36c0.53-0.01,1.07-0.03,1.6-0.04c0.75-0.02,1.5-0.04,2.25-0.05
						c0.13,0,0.18-0.03,0.17-0.17c-0.02-0.15-0.01-0.3-0.02-0.45c-0.04-0.32-0.2-0.56-0.5-0.67c-0.15-0.06-0.32-0.08-0.49-0.07
						c-2.02,0.04-4.04,0.09-6.05,0.14c-0.07,0-0.13,0-0.2,0.01c-0.41,0.05-0.71,0.34-0.75,0.75c-0.02,0.15,0.01,0.31-0.01,0.47
						c-0.01,0.15,0.05,0.18,0.19,0.18C544.45,114.42,545.72,114.39,546.99,114.36z"/>
					<path class="st4" d="M544.74,117.99c-0.16,0-0.32,0.01-0.48,0.01c-0.26,0-0.44-0.17-0.46-0.43c-0.02-0.33-0.02-0.67-0.02-1
						c0-0.26,0.18-0.44,0.44-0.45c0.33-0.02,0.65-0.03,0.98-0.02c0.28,0,0.45,0.18,0.47,0.46c0.01,0.32,0.02,0.63,0.02,0.95
						c0,0.29-0.17,0.46-0.46,0.48C545.06,117.99,544.9,117.99,544.74,117.99C544.74,117.99,544.74,117.99,544.74,117.99z
						 M544.13,117.05c0,0.15,0.01,0.3,0.01,0.45c0,0.1,0.04,0.16,0.15,0.15c0.31-0.01,0.61-0.01,0.92-0.03
						c0.05,0,0.12-0.09,0.12-0.13c0-0.31-0.01-0.61-0.02-0.92c0-0.1-0.05-0.14-0.15-0.14c-0.3,0.01-0.6,0.01-0.9,0.02
						c-0.1,0-0.15,0.05-0.15,0.16C544.12,116.76,544.13,116.91,544.13,117.05z"/>
					<path class="st4" d="M549.43,117.88c-0.17,0-0.33,0.01-0.5,0.01c-0.27-0.01-0.44-0.17-0.45-0.43c-0.02-0.33-0.02-0.67-0.02-1
						c0-0.25,0.17-0.43,0.42-0.45c0.34-0.02,0.68-0.03,1.02-0.02c0.25,0,0.43,0.18,0.45,0.43c0.02,0.33,0.03,0.67,0.02,1
						c0,0.27-0.18,0.44-0.45,0.46C549.75,117.88,549.59,117.88,549.43,117.88C549.43,117.88,549.43,117.88,549.43,117.88z
						 M549.42,117.54c0.15,0,0.3-0.01,0.45-0.01c0.1,0,0.15-0.05,0.15-0.16c-0.01-0.29-0.02-0.59-0.02-0.88
						c0-0.11-0.05-0.16-0.17-0.16c-0.29,0.01-0.59,0.02-0.88,0.02c-0.11,0-0.15,0.05-0.15,0.16c0.01,0.29,0.02,0.59,0.02,0.88
						c0,0.11,0.05,0.16,0.17,0.16C549.13,117.54,549.27,117.54,549.42,117.54z"/>
					<path class="st4" d="M545.73,119.69c0,0.17,0.01,0.33,0.01,0.5c-0.01,0.27-0.17,0.44-0.43,0.45c-0.33,0.02-0.67,0.02-1,0.02
						c-0.25,0-0.44-0.17-0.45-0.42c-0.02-0.34-0.03-0.68-0.02-1.01c0-0.25,0.18-0.43,0.43-0.45c0.33-0.02,0.67-0.03,1-0.02
						c0.27,0,0.44,0.18,0.46,0.45C545.73,119.37,545.73,119.53,545.73,119.69z M544.78,119.12c-0.14,0-0.29,0.01-0.43,0.01
						c-0.12,0-0.17,0.05-0.17,0.17c0.01,0.29,0.02,0.58,0.02,0.87c0,0.11,0.05,0.16,0.16,0.16c0.29-0.01,0.59-0.02,0.88-0.02
						c0.1,0,0.15-0.05,0.15-0.15c-0.01-0.29-0.02-0.59-0.02-0.88c0-0.12-0.06-0.17-0.18-0.16
						C545.06,119.11,544.92,119.11,544.78,119.12z"/>
					<path class="st4" d="M549.49,120.55c-0.17,0-0.33,0.01-0.5,0.01c-0.27-0.01-0.44-0.17-0.45-0.43c-0.02-0.33-0.02-0.67-0.02-1
						c0-0.25,0.17-0.44,0.42-0.45c0.34-0.02,0.68-0.03,1.02-0.02c0.26,0,0.44,0.18,0.45,0.44c0.02,0.33,0.02,0.65,0.02,0.98
						c0,0.27-0.17,0.44-0.45,0.46C549.81,120.54,549.65,120.54,549.49,120.55C549.49,120.55,549.49,120.55,549.49,120.55z
						 M548.87,119.61c0,0.15,0.01,0.3,0.01,0.45c0,0.1,0.04,0.16,0.15,0.15c0.3-0.01,0.6-0.01,0.9-0.02c0.1,0,0.15-0.05,0.15-0.16
						c-0.01-0.29-0.02-0.59-0.02-0.88c0-0.11-0.06-0.16-0.17-0.15c-0.29,0.01-0.58,0.02-0.87,0.02c-0.12,0-0.17,0.06-0.16,0.18
						C548.87,119.33,548.87,119.47,548.87,119.61z"/>
					<path class="st4" d="M545.8,122.36c0,0.16,0.01,0.32,0.01,0.48c0,0.28-0.16,0.45-0.44,0.47c-0.33,0.02-0.67,0.02-1,0.02
						c-0.25,0-0.43-0.17-0.45-0.42c-0.02-0.34-0.03-0.68-0.02-1.01c0-0.25,0.18-0.43,0.43-0.44c0.33-0.02,0.67-0.03,1-0.02
						c0.27,0,0.44,0.18,0.46,0.45C545.79,122.04,545.79,122.2,545.8,122.36z M545.45,122.36c0-0.14-0.01-0.29-0.01-0.43
						c0-0.11-0.05-0.16-0.17-0.15c-0.29,0.01-0.58,0.02-0.87,0.02c-0.12,0-0.17,0.06-0.16,0.18c0.01,0.29,0.02,0.58,0.02,0.87
						c0,0.1,0.04,0.16,0.15,0.15c0.3-0.01,0.6-0.01,0.9-0.02c0.1,0,0.15-0.05,0.15-0.16C545.46,122.66,545.45,122.51,545.45,122.36z
						"/>
					<path class="st4" d="M549.54,123.21c-0.16,0-0.32,0.01-0.48,0.01c-0.27-0.01-0.44-0.17-0.45-0.43c-0.02-0.33-0.02-0.67-0.02-1
						c0-0.25,0.17-0.43,0.42-0.45c0.34-0.02,0.68-0.03,1.02-0.02c0.25,0,0.43,0.18,0.45,0.43c0.02,0.33,0.03,0.67,0.02,1
						c0,0.27-0.17,0.44-0.45,0.46C549.87,123.21,549.7,123.21,549.54,123.21C549.54,123.21,549.54,123.21,549.54,123.21z
						 M550.13,122.26c0-0.14-0.01-0.29-0.01-0.43c0-0.12-0.06-0.17-0.17-0.16c-0.29,0.01-0.58,0.02-0.87,0.02
						c-0.1,0-0.16,0.04-0.16,0.15c0.01,0.31,0.01,0.61,0.03,0.92c0,0.05,0.09,0.12,0.13,0.12c0.31,0,0.61-0.01,0.92-0.02
						c0.09,0,0.14-0.05,0.14-0.15C550.13,122.56,550.13,122.41,550.13,122.26z"/>
					<path class="st4" d="M548.01,116.98c0,0.16,0.01,0.32,0.01,0.48c0,0.27-0.17,0.45-0.44,0.46c-0.32,0.01-0.64,0.02-0.97,0.02
						c-0.28,0-0.46-0.17-0.47-0.45c-0.01-0.32-0.02-0.63-0.02-0.95c0-0.29,0.17-0.47,0.46-0.48c0.31-0.01,0.62-0.02,0.93-0.02
						c0.29,0,0.47,0.17,0.49,0.46C548,116.66,548,116.82,548.01,116.98z M547.66,116.98c0-0.14-0.01-0.29-0.01-0.43
						c0-0.12-0.05-0.17-0.17-0.17c-0.28,0.01-0.57,0.02-0.85,0.02c-0.12,0-0.17,0.04-0.17,0.17c0.01,0.29,0.02,0.59,0.02,0.88
						c0,0.1,0.05,0.15,0.15,0.15c0.29-0.01,0.59-0.02,0.88-0.02c0.11,0,0.16-0.05,0.15-0.16
						C547.66,117.27,547.66,117.13,547.66,116.98z"/>
					<path class="st4" d="M548.07,119.63c0,0.16,0.01,0.32,0.01,0.48c0,0.29-0.17,0.46-0.45,0.47c-0.32,0.01-0.64,0.02-0.97,0.02
						c-0.28,0-0.45-0.17-0.46-0.44c-0.02-0.33-0.02-0.65-0.02-0.98c0-0.26,0.17-0.45,0.43-0.46c0.33-0.02,0.67-0.03,1-0.02
						c0.26,0,0.43,0.18,0.45,0.44C548.07,119.31,548.06,119.47,548.07,119.63C548.07,119.63,548.07,119.63,548.07,119.63z
						 M546.54,119.68c0,0.15,0.01,0.3,0.01,0.45c0,0.1,0.05,0.14,0.14,0.14c0.3-0.01,0.6-0.02,0.9-0.02c0.11,0,0.15-0.05,0.15-0.16
						c-0.01-0.29-0.02-0.59-0.02-0.88c0-0.12-0.06-0.16-0.18-0.16c-0.28,0.01-0.57,0.02-0.85,0.02c-0.12,0-0.17,0.06-0.16,0.18
						C546.53,119.39,546.53,119.53,546.54,119.68z"/>
					<path class="st4" d="M548.13,122.3c0,0.17,0.01,0.33,0.01,0.5c-0.01,0.27-0.17,0.44-0.43,0.45c-0.33,0.02-0.65,0.02-0.98,0.02
						c-0.27,0-0.44-0.16-0.46-0.43c-0.02-0.33-0.02-0.67-0.02-1c0-0.26,0.17-0.44,0.43-0.46c0.33-0.02,0.66-0.03,0.98-0.02
						c0.27,0,0.44,0.18,0.46,0.45C548.13,121.98,548.13,122.14,548.13,122.3z M546.6,122.34c0,0.14,0.01,0.29,0.01,0.43
						c0,0.11,0.05,0.16,0.16,0.16c0.29-0.01,0.59-0.02,0.88-0.02c0.11,0,0.15-0.05,0.15-0.16c-0.01-0.29-0.02-0.59-0.02-0.88
						c0-0.12-0.06-0.16-0.18-0.16c-0.28,0.01-0.57,0.02-0.85,0.02c-0.12,0-0.17,0.06-0.16,0.17
						C546.59,122.05,546.59,122.2,546.6,122.34z"/>
					<path class="st4" d="M546.95,126.45c0.01-0.19,0.16-0.33,0.35-0.33c0.19,0.01,0.33,0.16,0.33,0.35
						c-0.01,0.19-0.16,0.33-0.35,0.33C547.09,126.8,546.94,126.64,546.95,126.45z"/>
					<path class="st4" d="M546.44,113.52c0.28-0.01,0.57-0.01,0.85-0.02c0.13,0,0.23,0.03,0.23,0.18c0,0.13-0.11,0.17-0.22,0.17
						c-0.57,0.01-1.14,0.03-1.71,0.04c-0.12,0-0.24-0.03-0.24-0.17c0-0.14,0.1-0.18,0.23-0.18
						C545.86,113.53,546.15,113.52,546.44,113.52z"/>
					<path class="st4" d="M548.15,113.9c-0.14,0.01-0.26-0.1-0.27-0.24c-0.01-0.15,0.11-0.27,0.25-0.27c0.14,0,0.25,0.11,0.26,0.25
						C548.39,113.78,548.29,113.9,548.15,113.9z"/>
				</g>
			</g>
		</g>
		<path class="st5" d="M581.29,116.46c-0.16-5.31-1.12-10.42-2.76-15.2c-5.89-17.76-20.79-30.56-40.2-34.83
			c-11.52-2.53-22.36-1.05-31.76,3.21c-20.1,7.51-34.19,27.14-33.62,49.79l0.12,4.93c0.71,28.56,24.45,51.13,53.01,50.42l24.56-0.61
			c10.46,0.17,20.9,0.18,31.24,0.55c0.01-0.02,0.01-0.03,0.01-0.05l1.27,0.02l-0.11-4.32c0-0.04,0.01-0.08,0.01-0.11
			C582.53,152.31,582.69,134.32,581.29,116.46z M572.99,164.04l-8.34,0.21l-7.82-7.66l-6.33-6.2c-6.13,4.75-13.75,7.7-22.1,7.9
			c-20.8,0.52-38.09-15.92-38.61-36.73c-0.38-15.18,8.29-28.45,21.07-34.74c0.33-0.16,0.65-0.35,0.99-0.51
			c0.08-0.04,0.16-0.07,0.24-0.11c4.06-1.91,8.5-3.13,13.18-3.44c2.2-0.15,4.37-0.05,6.51,0.22c0.33,0.04,0.66,0.08,0.99,0.13
			c0.88,0.14,1.74,0.31,2.6,0.51c0.26,0.06,0.53,0.12,0.79,0.18c1.7,0.44,3.36,1.02,4.98,1.7c0.06,0.02,0.12,0.05,0.18,0.07
			c0.23,0.09,0.45,0.21,0.68,0.31c13.26,5.57,22.73,18.48,23.11,33.79c0.22,8.66-2.54,16.69-7.29,23.18l7.47,6.4l7.47,6.4
			L572.99,164.04z"/>
	</g>
	<path class="st5" d="M373.46,138.09l7.56-55.19c1.52-12.1-6.8-21.92-18.9-21.92h-26.46c-13.61,0-26.46,11.34-28.72,24.95
		l-9.08,65.77c-1.52,12.85,6.8,22.68,18.9,22.68h51.41l3.02-21.93h-51.41c0,0,0,0,0-0.76l1.51-13.61H373.46z M359.09,82.9
		L359.09,82.9l-4.53,33.27h-29.48l3.78-28.73l-9.08-4.53H359.09z"/>
	<path class="st3" d="M728.99,138.09l7.56-55.19c1.52-12.1-6.8-21.92-18.9-21.92h-26.46c-13.61,0-26.46,11.34-28.72,24.95
		l-9.08,65.77c-1.52,12.85,6.8,22.68,18.9,22.68h51.41l3.03-21.93h-51.41c0,0,0,0,0-0.76l1.51-13.61H728.99z M714.62,82.9
		L714.62,82.9l-4.53,33.27h-29.48l3.78-28.73l-9.08-4.53H714.62z"/>
	<path class="st0" d="M614.72,149.43l18.9-134.57H611.7l-18.9,134.57c-2.27,13.61,7.56,24.95,21.18,24.95h26.46l3.03-21.93h-37.81
		L614.72,149.43z"/>
	<path class="st5" d="M279.74,60.97h-51.41l-15.87,113.4h21.92l12.1-86.95l-10.58-4.53h40.82c0.75,0,0.75,0,0.75,0l-3.77,23.44
		h21.92l3.77-23.44C300.9,70.79,292.59,60.97,279.74,60.97z"/>
	<path class="st5" d="M99.14,60.97H72.68c-13.61,0-26.46,11.34-28.73,24.95l-2.27,17.39c-1.51,11.33,5.3,21.16,16.63,22.67
		l30.24,5.29c0.76,0,0.76,0.76,0.76,1.52l-2.27,18.9c0,0.76-0.76,0.76-0.76,0.76H57.57c-0.76,0-0.76,0-0.76-0.76l2.27-15.87H37.15
		l-2.27,15.87c-1.52,12.85,6.8,22.68,19.66,22.68h28.72c12.1,0,23.44-9.83,25.71-22.68l2.27-18.9c1.52-12.1-5.29-21.92-16.63-23.44
		l-29.48-4.53c-0.76-0.76-1.52-0.76-1.52-1.51l2.27-15.88l-7.56-4.53h37.81c0,0,0.75,0,0,0l-2.28,15.87h21.92l2.28-15.87
		C120.3,70.79,111.24,60.97,99.14,60.97z"/>
	<path class="st2" d="M454.66,60.97h-26.46c-13.61,0-26.46,11.34-28.73,24.95l-2.27,17.39c-1.51,11.33,5.3,21.16,16.63,22.67
		l30.24,5.29c0.76,0,0.76,0.76,0.76,1.52l-2.27,18.9c0,0.76-0.76,0.76-0.76,0.76H413.1c-0.76,0-0.76,0-0.76-0.76l2.27-15.87h-21.92
		l-2.27,15.87c-1.52,12.85,6.8,22.68,19.66,22.68h28.72c12.1,0,23.44-9.83,25.71-22.68l2.27-18.9c1.52-12.1-5.29-21.92-16.63-23.44
		l-29.48-4.53c-0.76-0.76-1.52-0.76-1.52-1.51l2.27-15.88l-7.56-4.53h37.81c0,0,0.75,0,0,0l-2.28,15.87h21.92l2.28-15.87
		C475.83,70.79,466.77,60.97,454.66,60.97z"/>
	<path class="st5" d="M182.5,147.91l11.34,4.54H150c-2.27,0-3.01-1.52-3.01-3.03l12.85-88.45h-21.93l-12.85,88.45
		c-1.52,13.61,7.56,24.95,21.92,24.95h53.67l15.87-113.4H194.6L182.5,147.91z"/>
</g>
</svg>
