<?xml version="1.0" encoding="utf-8"?>
<!-- Generator: Adobe Illustrator 24.0.1, SVG Export Plug-In . SVG Version: 6.00 Build 0)  -->
<svg version="1.1" id="Layer_1" xmlns="http://www.w3.org/2000/svg" xmlns:xlink="http://www.w3.org/1999/xlink" x="0px" y="0px"
	 viewBox="0 0 480.99 100.75" style="enable-background:new 0 0 480.99 100.75;" xml:space="preserve">
<style type="text/css">
	.st0{fill:#2FA84F;}
	.st1{fill:#E94536;}
	.st2{fill:#547DBF;}
	.st3{fill:#F6BE19;}
	.st4{fill:#34A750;}
	.st5{fill:#FFFFFF;}
</style>
<path class="st0" d="M27.29,100h-1.06c-5.56,0-10.67-1.32-15.31-3.98C5.91,93.03,2.15,88.66-0.35,82.9l14.01-5.83
	c2.21,5.2,6.43,7.79,12.67,7.79c2.92,0,5.42-0.75,7.51-2.24c1.01-0.82,1.51-1.76,1.51-2.8c0-1.46-0.75-2.59-2.24-3.42
	c-2.66-1.08-5.63-1.77-8.91-2.07c-5.46-0.68-9.99-1.85-13.62-3.53c-4.29-2.21-7.33-5.23-9.08-9.08c-1.13-2.5-1.68-5.06-1.68-7.68
	c0-6.01,2.45-11,7.35-14.96c4.9-3.66,10.5-5.49,16.82-5.49c5.61,0,10.74,1.34,15.41,4.03c5.04,2.99,8.81,7.37,11.27,13.12
	l-14.02,5.77c-2.21-5.16-6.48-7.73-12.84-7.73c-2.84,0-5.29,0.73-7.35,2.19c-0.97,0.86-1.46,1.81-1.46,2.86
	c0,1.49,0.73,2.64,2.19,3.42c2.69,1.08,5.66,1.77,8.91,2.07c5.68,0.68,10.24,1.85,13.68,3.53c4.34,2.21,7.36,5.23,9.08,9.08
	c1.16,2.5,1.74,5.09,1.74,7.73c0,5.94-2.49,10.91-7.45,14.91C38.56,98,33.26,99.81,27.29,100z"/>
<path class="st0" d="M90.41,100c-3.93,0-7.62-0.75-11.07-2.24c-3.46-1.49-6.49-3.54-9.11-6.14c-2.62-2.59-4.66-5.63-6.14-9.08
	c-1.48-3.46-2.21-7.17-2.21-11.13v-37.9h15.12v37.9c0,3.7,1.31,6.86,3.93,9.47c2.62,2.62,5.77,3.93,9.47,3.93
	c3.74,0,6.9-1.31,9.5-3.93c2.59-2.62,3.9-5.77,3.9-9.47v-37.9h15.19v37.9c0,3.93-0.74,7.62-2.21,11.07
	c-1.48,3.46-3.53,6.49-6.17,9.11c-2.64,2.62-5.68,4.67-9.14,6.17C98.03,99.25,94.33,100,90.41,100z"/>
<path class="st0" d="M145.45,100h-15.19V62.05c0-3.93,0.75-7.62,2.24-11.07c1.49-3.46,3.54-6.49,6.14-9.11s5.63-4.66,9.08-6.14
	c3.46-1.48,7.17-2.21,11.13-2.21v15.19c-3.7,0-6.86,1.31-9.47,3.93c-2.62,2.62-3.93,5.75-3.93,9.42V100H145.45z"/>
<path class="st0" d="M203.36,100c-4.6,0-8.91-0.86-12.95-2.61c-4.03-1.74-7.57-4.12-10.6-7.15c-3.02-3.02-5.41-6.55-7.15-10.6
	c-1.74-4.03-2.61-8.34-2.61-12.89c0-4.6,0.86-8.91,2.61-12.95c1.74-4.03,4.12-7.57,7.15-10.6c6.84-6.5,14.68-9.75,23.54-9.75
	c6.1,0,11.65,1.5,16.67,4.51c5.02,3.01,9.05,7.02,12.06,12.06c3.01,5.02,4.51,10.61,4.51,16.74c0,1.72-0.14,3.4-0.4,5.04h-50.23
	c0.9,2.99,2.43,5.55,4.6,7.68c3.51,3.55,7.77,5.33,12.79,5.33c2.73,0,5.34-0.59,7.82-1.79c2.48-1.2,4.61-2.88,6.37-5.04l15.41,3.93
	c-2.95,5.56-7.06,9.98-12.31,13.23C215.41,98.37,209.65,100,203.36,100z M218.34,56.61c-1.68-2.5-3.83-4.46-6.47-5.86
	c-2.64-1.4-5.47-2.11-8.49-2.11c-6.1,0-11.1,2.66-15.03,7.96H218.34z"/>
<path class="st1" d="M275.35,100h-1.06c-5.56,0-10.67-1.32-15.31-3.98c-5.01-2.99-8.76-7.36-11.27-13.12l14.01-5.83
	c2.21,5.2,6.43,7.79,12.67,7.79c2.92,0,5.42-0.75,7.51-2.24c1.01-0.82,1.51-1.76,1.51-2.8c0-1.46-0.75-2.59-2.24-3.42
	c-2.66-1.08-5.63-1.77-8.91-2.07c-5.46-0.68-9.99-1.85-13.62-3.53c-4.29-2.21-7.33-5.23-9.08-9.08c-1.13-2.5-1.68-5.06-1.68-7.68
	c0-6.01,2.45-11,7.35-14.96c4.9-3.66,10.5-5.49,16.82-5.49c5.61,0,10.74,1.34,15.41,4.03c5.04,2.99,8.81,7.37,11.27,13.12
	l-14.02,5.77c-2.21-5.16-6.48-7.73-12.84-7.73c-2.84,0-5.29,0.73-7.35,2.19c-0.97,0.86-1.46,1.81-1.46,2.86
	c0,1.49,0.73,2.64,2.19,3.42c2.69,1.08,5.66,1.77,8.91,2.07c5.68,0.68,10.24,1.85,13.68,3.53c4.34,2.21,7.36,5.23,9.08,9.08
	c1.16,2.5,1.74,5.09,1.74,7.73c0,5.94-2.49,10.91-7.45,14.91C286.62,98,281.32,99.81,275.35,100z"/>
<path class="st2" d="M402.82,100h-15.13V1h15.13V100z"/>
<path class="st3" d="M447.39,100c-4.6,0-8.91-0.86-12.95-2.61c-4.03-1.74-7.57-4.12-10.6-7.15c-3.03-3.02-5.41-6.55-7.15-10.6
	c-1.74-4.03-2.61-8.34-2.61-12.89c0-4.6,0.86-8.91,2.61-12.95c1.74-4.03,4.12-7.57,7.15-10.6c6.84-6.5,14.68-9.75,23.54-9.75
	c6.1,0,11.65,1.5,16.67,4.51c5.02,3.01,9.05,7.02,12.06,12.06c3.01,5.02,4.51,10.61,4.51,16.74c0,1.72-0.14,3.4-0.4,5.04H430
	c0.9,2.99,2.43,5.55,4.6,7.68c3.51,3.55,7.77,5.33,12.78,5.33c2.73,0,5.34-0.59,7.82-1.79c2.48-1.2,4.61-2.88,6.37-5.04l15.41,3.93
	c-2.95,5.56-7.06,9.98-12.31,13.23C459.44,98.37,453.68,100,447.39,100z M462.36,56.61c-1.68-2.5-3.85-4.46-6.47-5.86
	c-2.64-1.4-5.46-2.11-8.49-2.11c-6.1,0-11.1,2.66-15.03,7.96H462.36z"/>
<g>
	<g>
		<g>
			<path class="st2" d="M354.89,51.95l-14.36,14.7l14.71,14.34C363.04,72.81,362.88,59.92,354.89,51.95z"/>
			<path class="st4" d="M325.44,51.94l14.71,14.34l14.36-14.7C346.34,43.81,333.43,43.97,325.44,51.94z"/>
			<path class="st1" d="M325.44,81.36l14.36-14.7l-14.71-14.34C317.29,60.48,317.44,73.37,325.44,81.36z"/>
			<path class="st3" d="M325.8,81.71c8.18,7.77,21.09,7.62,29.09-0.35l-14.71-14.34L325.8,81.71z"/>
		</g>
		<g>
			<g>
				<path class="st5" d="M344.92,77.45c-0.43-0.03-0.82,0.29-0.9,0.73c-0.07,0.42-0.15,0.82-0.22,1.24
					c-0.05,0.31-0.3,0.52-0.61,0.53c-1.75,0.04-3.5,0.08-5.25,0.13c-0.33,0.01-0.57-0.2-0.65-0.52c-0.09-0.41-0.18-0.82-0.28-1.23
					c-0.08-0.35-0.31-0.58-0.67-0.66c-0.35-0.07-0.66,0.04-0.88,0.34c-0.08,0.11-0.11,0.26-0.17,0.39c0,0.11,0.01,0.23,0.01,0.34
					c0.01,0.03,0.02,0.06,0.02,0.08c0.03,0.34,0.06,0.68,0.09,1.02c0.02,0.22,0.02,0.44,0.06,0.66c0.14,0.66,0.68,1.08,1.35,1.06
					c1.6-0.04,3.21-0.07,4.81-0.11c0.93-0.02,1.84-0.04,2.77-0.07c0.66-0.02,1.21-0.58,1.23-1.23c0.01-0.25,0.02-0.49,0.03-0.74
					c0.01-0.38,0.04-0.74,0.04-1.12C345.74,77.84,345.39,77.49,344.92,77.45z"/>
				<path class="st5" d="M336.31,77.33c0.5,0.06,0.9,0.41,1.01,0.9c0.09,0.4,0.19,0.8,0.27,1.21c0.05,0.23,0.15,0.31,0.38,0.31
					c1.72-0.04,3.44-0.08,5.16-0.13c0.22,0,0.31-0.09,0.35-0.3c0.06-0.35,0.14-0.71,0.19-1.07c0.08-0.55,0.35-0.94,0.92-1.09
					c0.02-0.01,0.05-0.03,0.05-0.06c0.05-0.26,0.07-0.52-0.01-0.78c-0.19-0.59-0.72-0.98-1.35-0.97c-0.96,0.02-1.93,0.04-2.89,0.06
					c-0.95,0.02-1.9,0.04-2.83,0.07c-0.11,0-0.23,0.01-0.33,0.04c-0.79,0.19-1.23,0.97-1,1.75
					C336.23,77.3,336.28,77.33,336.31,77.33z"/>
				<path class="st5" d="M336.74,81.91c-0.02,0-0.06,0.03-0.06,0.05c-0.03,0.13-0.06,0.25-0.08,0.38c-0.04,0.25,0.13,0.48,0.38,0.53
					s0.5-0.08,0.57-0.33c0.05-0.21,0.1-0.43,0.16-0.66C337.37,81.9,337.06,81.9,336.74,81.91z"/>
				<path class="st5" d="M343.52,81.75c0.06,0.23,0.11,0.46,0.2,0.68c0.07,0.2,0.29,0.32,0.49,0.29c0.23-0.03,0.42-0.2,0.42-0.43
					c0-0.19-0.06-0.39-0.09-0.57C344.18,81.74,343.85,81.74,343.52,81.75z"/>
			</g>
			<g>
				<path class="st5" d="M333.01,66.8c-1.51-1.3-3.02-2.61-4.53-3.91c-0.23-0.2-0.45-0.39-0.69-0.58c-1.73,1.6-3.47,3.2-5.19,4.79
					c0.14,0.21,0.32,0.29,0.55,0.25c0.2-0.03,0.35-0.16,0.51-0.28c1.16-1.02,2.31-2.05,3.47-3.07c0.23-0.2,0.46-0.41,0.69-0.6
					c0.03,0.03,0.06,0.05,0.09,0.07c1.3,1.12,2.61,2.23,3.92,3.33c0.13,0.1,0.27,0.19,0.42,0.25c0.28,0.11,0.56,0.11,0.79-0.19
					c0-0.01,0-0.01,0-0.02C333.03,66.81,333.02,66.8,333.01,66.8z"/>
				<path class="st5" d="M331.41,67.08c-0.86-0.73-1.73-1.46-2.59-2.19c-0.33-0.28-0.67-0.56-1-0.84c-0.02,0.01-0.03,0.02-0.04,0.03
					c-1.23,1.08-2.46,2.16-3.69,3.24c-0.03,0.03-0.05,0.08-0.05,0.13c0.03,1.3,0.06,2.61,0.09,3.91c0.01,0.22,0.07,0.28,0.29,0.28
					c0.81-0.02,1.64-0.04,2.45-0.06c0.03,0,0.07,0,0.11,0c0-0.05,0-0.09,0-0.14c-0.01-0.68-0.03-1.37-0.04-2.04
					c0-0.22,0.09-0.32,0.3-0.33c0.36-0.01,0.72-0.02,1.08-0.02c0.27,0,0.39,0.11,0.4,0.39c0.01,0.66,0.03,1.31,0.04,1.97
					c0,0.04,0,0.08,0,0.13c0.04,0,0.07,0,0.11,0c0.8-0.02,1.59-0.04,2.4-0.05c0.04,0,0.08-0.01,0.13-0.01
					c0.1-0.01,0.18-0.07,0.2-0.18c0.01-0.06,0.02-0.13,0.02-0.18c-0.03-1.25-0.06-2.5-0.08-3.75
					C331.52,67.23,331.49,67.15,331.41,67.08z"/>
				<path class="st5" d="M330.8,64.59c0.29,0.25,0.59,0.48,0.9,0.73c0.02,0.02,0.05,0.03,0.08,0.06c-0.02-0.71-0.03-1.4-0.05-2.09
					c-0.34,0.01-0.68,0.02-1.03,0.02c0.01,0.4,0.02,0.77,0.03,1.15C330.73,64.5,330.76,64.56,330.8,64.59z"/>
			</g>
			<path class="st5" d="M344.76,53.64c-0.04-0.25-0.14-0.44-0.39-0.52c-0.13-0.04-0.24-0.1-0.36-0.17c0.1-0.05,0.16-0.13,0.16-0.23
				c0-0.07,0-0.16-0.01-0.23c-0.01-0.13-0.05-0.16-0.18-0.16c-0.15,0-0.3,0-0.45,0.01c-0.07,0-0.1-0.02-0.13-0.08
				c-0.07-0.16-0.16-0.31-0.23-0.48c-0.18-0.39-0.48-0.61-0.88-0.74c-0.56-0.19-1.16-0.24-1.75-0.24c-0.56,0-1.13,0.02-1.69,0.06
				c-0.47,0.03-0.93,0.11-1.37,0.29c-0.36,0.15-0.66,0.36-0.8,0.74c-0.06,0.17-0.16,0.33-0.23,0.5c-0.03,0.09-0.08,0.11-0.18,0.11
				c-0.15,0-0.28,0-0.43,0.01c-0.05,0-0.11,0.03-0.14,0.07c-0.09,0.17-0.01,0.45,0.15,0.54c-0.19,0.1-0.39,0.21-0.56,0.32
				c-0.05,0.03-0.1,0.1-0.11,0.17c-0.03,0.17-0.06,0.34-0.07,0.51c-0.05,0.9,0.01,1.79,0.08,2.69c0.01,0.09,0.02,0.18,0.03,0.27
				c0.08,0,0.16,0,0.23-0.01c0.01,0.06,0.02,0.13,0.02,0.18c0.01,0.09,0.06,0.15,0.17,0.14c0.54-0.01,1.07-0.02,1.62-0.04
				c0.11,0,0.15-0.04,0.16-0.16c0-0.05,0.01-0.11,0.01-0.17c1.74-0.04,3.47-0.08,5.2-0.13c0.01,0.06,0.01,0.13,0.01,0.18
				c0.01,0.09,0.06,0.15,0.17,0.14c0.54-0.01,1.08-0.03,1.64-0.04c0.08,0,0.13-0.04,0.14-0.13c0.01-0.06,0.01-0.14,0.02-0.21
				c0.08,0,0.16,0,0.24-0.01c0.01-0.3,0.02-0.6,0.03-0.9C344.87,55.19,344.87,54.41,344.76,53.64z M337.42,54.37
				c-0.33,0.03-0.66,0.06-0.99,0.08c-0.18,0.01-0.34,0.01-0.52,0.01c-0.11,0-0.17-0.03-0.18-0.16c-0.01-0.14-0.01-0.28-0.01-0.42
				c0-0.05,0.02-0.08,0.07-0.08c0.52,0,1.02,0.08,1.47,0.38c0.06,0.04,0.1,0.08,0.17,0.14C337.42,54.35,337.42,54.36,337.42,54.37z
				 M342.37,55.69c-0.02,0.07-0.04,0.15-0.08,0.22c-0.01,0.03-0.07,0.04-0.1,0.05c-0.73,0.02-1.46,0.03-2.19,0.05
				c-0.72,0.02-1.45,0.03-2.17,0.05c-0.07,0-0.11-0.01-0.15-0.09c-0.01-0.04-0.04-0.08-0.06-0.11c-0.07-0.15-0.04-0.25,0.1-0.31
				c0.22-0.09,0.45-0.17,0.68-0.24c0.55-0.17,1.12-0.27,1.69-0.27c0.66,0.01,1.3,0.09,1.93,0.31c0.08,0.03,0.16,0.06,0.23,0.1
				C342.37,55.5,342.4,55.58,342.37,55.69z M336.85,53.07c0.14-0.29,0.26-0.55,0.4-0.81c0.14-0.25,0.34-0.42,0.63-0.51
				c0.41-0.14,0.83-0.21,1.26-0.25c0.5-0.05,1-0.06,1.51-0.03c0.46,0.03,0.91,0.07,1.34,0.22c0.22,0.07,0.39,0.2,0.52,0.38
				c0.2,0.27,0.33,0.56,0.47,0.88C340.94,52.98,338.91,53.02,336.85,53.07z M344.17,53.75c-0.01,0.13-0.01,0.25-0.02,0.38
				c-0.01,0.13-0.04,0.15-0.17,0.16c-0.16,0.01-0.3,0.01-0.46,0.01c0,0,0,0,0,0.01c-0.28-0.01-0.57-0.03-0.85-0.05
				c-0.04,0-0.09-0.03-0.1-0.05c-0.01-0.03,0.02-0.08,0.05-0.1c0.2-0.16,0.42-0.27,0.67-0.32c0.25-0.05,0.5-0.09,0.76-0.14
				C344.13,53.62,344.17,53.66,344.17,53.75z"/>
			<g>
				<path class="st5" d="M354.96,66.29c0.03,1.27,0.06,2.53,0.09,3.8c0.01,0.26-0.06,0.49-0.26,0.66c-0.14,0.11-0.3,0.17-0.47,0.17
					c-1.28,0.03-2.56,0.06-3.85,0.09c-0.44,0.01-0.74-0.28-0.77-0.72c0-0.03,0-0.05,0-0.08c-0.06-2.53-0.11-5.05-0.18-7.59
					c0-0.19,0.02-0.36,0.14-0.53c0.15-0.21,0.35-0.31,0.6-0.31c1.28-0.03,2.56-0.06,3.85-0.09c0.46-0.01,0.76,0.3,0.77,0.77
					c0.02,0.95,0.04,1.89,0.06,2.83C354.94,65.62,354.95,65.95,354.96,66.29z M349.74,63.07c0.05,2.18,0.1,4.35,0.16,6.51
					c1.65-0.04,3.28-0.07,4.92-0.11c0-0.04,0-0.08,0-0.13c-0.05-2.08-0.09-4.18-0.15-6.26c0-0.14,0-0.14-0.14-0.13
					c-1.55,0.04-3.11,0.07-4.66,0.11C349.83,63.06,349.79,63.07,349.74,63.07z M354.81,69.7c-1.65,0.04-3.28,0.07-4.92,0.11
					c0,0.15,0.01,0.28,0.01,0.42c0,0.05,0,0.09,0.01,0.15c0.05,0.27,0.27,0.43,0.57,0.43c1.26-0.03,2.52-0.06,3.77-0.09
					c0.03,0,0.07,0,0.1-0.01c0.25-0.03,0.44-0.21,0.46-0.46C354.83,70.06,354.82,69.88,354.81,69.7z M352.19,62.8
					c0.33-0.01,0.66-0.01,0.99-0.02c0.46-0.01,0.93-0.02,1.39-0.03c0.07,0,0.11-0.02,0.1-0.1c-0.01-0.09,0-0.19-0.01-0.28
					c-0.02-0.2-0.13-0.34-0.3-0.42c-0.09-0.03-0.2-0.05-0.3-0.04c-1.24,0.02-2.48,0.05-3.73,0.08c-0.04,0-0.08,0-0.13,0.01
					c-0.25,0.03-0.44,0.21-0.46,0.46c-0.01,0.09,0,0.19,0,0.29c-0.01,0.09,0.03,0.11,0.11,0.11
					C350.62,62.83,351.41,62.81,352.19,62.8z"/>
				<path class="st5" d="M350.8,65.03c-0.1,0-0.2,0.01-0.3,0.01c-0.17,0-0.27-0.1-0.28-0.26c-0.01-0.21-0.01-0.41-0.01-0.61
					c0-0.16,0.1-0.27,0.27-0.28c0.2-0.01,0.41-0.01,0.6-0.01c0.17,0,0.28,0.11,0.29,0.28c0.01,0.2,0.01,0.39,0.01,0.58
					c0,0.18-0.1,0.28-0.28,0.29C351,65.03,350.89,65.03,350.8,65.03L350.8,65.03z M350.43,64.45c0,0.09,0.01,0.19,0.01,0.28
					c0,0.06,0.03,0.09,0.09,0.09c0.19,0,0.38-0.01,0.56-0.02c0.03,0,0.07-0.05,0.07-0.08c0-0.19,0-0.38-0.01-0.56
					c0-0.06-0.03-0.08-0.09-0.08c-0.19,0-0.36,0.01-0.55,0.01c-0.06,0-0.09,0.03-0.09,0.09C350.42,64.28,350.43,64.36,350.43,64.45z
					"/>
				<path class="st5" d="M353.69,64.96c-0.1,0-0.21,0.01-0.31,0.01c-0.17,0-0.27-0.1-0.28-0.27c-0.01-0.21-0.01-0.41-0.01-0.61
					c0-0.16,0.1-0.27,0.26-0.28c0.21-0.01,0.42-0.02,0.63-0.01c0.16,0,0.27,0.11,0.27,0.26c0.01,0.21,0.02,0.41,0.01,0.61
					c0,0.17-0.1,0.27-0.28,0.28C353.89,64.96,353.78,64.96,353.69,64.96L353.69,64.96z M353.68,64.75c0.09,0,0.19,0,0.28-0.01
					c0.06,0,0.09-0.03,0.09-0.09c-0.01-0.18-0.01-0.36-0.01-0.54c0-0.07-0.03-0.09-0.1-0.09c-0.18,0.01-0.36,0.01-0.54,0.01
					c-0.06,0-0.09,0.03-0.09,0.09c0,0.18,0.01,0.36,0.01,0.54c0,0.07,0.03,0.09,0.1,0.09C353.5,64.76,353.58,64.75,353.68,64.75z"/>
				<path class="st5" d="M351.41,66.08c0,0.1,0.01,0.21,0.01,0.3c0,0.17-0.1,0.27-0.27,0.28c-0.21,0.01-0.41,0.01-0.61,0.01
					c-0.16,0-0.27-0.1-0.28-0.26c-0.01-0.21-0.02-0.42-0.01-0.63c0-0.16,0.1-0.27,0.26-0.27c0.21-0.01,0.41-0.02,0.61-0.01
					c0.17,0,0.27,0.11,0.28,0.27C351.41,65.88,351.41,65.98,351.41,66.08z M350.82,65.73c-0.09,0-0.18,0.01-0.27,0.01
					c-0.07,0-0.1,0.03-0.1,0.1c0.01,0.18,0.01,0.35,0.01,0.53c0,0.07,0.03,0.1,0.1,0.09c0.18-0.01,0.36-0.01,0.54-0.01
					c0.06,0,0.09-0.03,0.09-0.09c-0.01-0.18-0.01-0.36-0.01-0.54c0-0.07-0.04-0.1-0.11-0.09C351,65.73,350.91,65.73,350.82,65.73z"
					/>
				<path class="st5" d="M353.72,66.6c-0.1,0-0.21,0.01-0.31,0.01c-0.17,0-0.27-0.1-0.28-0.27c-0.01-0.21-0.01-0.41-0.01-0.61
					c0-0.16,0.1-0.27,0.26-0.28c0.21-0.01,0.42-0.02,0.63-0.01c0.16,0,0.27,0.11,0.28,0.27c0.01,0.2,0.01,0.41,0.01,0.6
					c0,0.17-0.1,0.27-0.27,0.28C353.93,66.6,353.82,66.6,353.72,66.6L353.72,66.6z M353.34,66.03c0,0.09,0.01,0.19,0.01,0.28
					c0,0.06,0.03,0.09,0.09,0.09c0.19,0,0.36-0.01,0.55-0.01c0.06,0,0.09-0.03,0.09-0.09c-0.01-0.18-0.01-0.36-0.01-0.54
					c0-0.07-0.03-0.09-0.1-0.09c-0.18,0.01-0.35,0.01-0.53,0.01c-0.07,0-0.1,0.03-0.1,0.1C353.34,65.85,353.34,65.94,353.34,66.03z"
					/>
				<path class="st5" d="M351.45,67.72c0,0.09,0.01,0.2,0.01,0.29c0,0.17-0.1,0.28-0.27,0.29c-0.21,0.01-0.41,0.01-0.61,0.01
					c-0.16,0-0.27-0.1-0.27-0.26c-0.01-0.21-0.02-0.42-0.01-0.63c0-0.16,0.1-0.26,0.26-0.27c0.21-0.01,0.41-0.02,0.61-0.01
					c0.17,0,0.27,0.11,0.28,0.28C351.45,67.52,351.45,67.62,351.45,67.72z M351.24,67.72c0-0.09,0-0.18-0.01-0.27
					c0-0.07-0.03-0.09-0.1-0.09c-0.18,0.01-0.35,0.01-0.53,0.01c-0.07,0-0.1,0.03-0.1,0.1c0.01,0.18,0.01,0.35,0.01,0.53
					c0,0.06,0.03,0.09,0.09,0.09c0.19,0,0.36-0.01,0.55-0.01c0.06,0,0.09-0.03,0.09-0.09C351.24,67.9,351.24,67.81,351.24,67.72z"/>
				<path class="st5" d="M353.75,68.25c-0.1,0-0.2,0.01-0.3,0.01c-0.17,0-0.27-0.1-0.28-0.27c-0.01-0.21-0.01-0.41-0.01-0.61
					c0-0.16,0.1-0.27,0.26-0.28c0.21-0.01,0.42-0.02,0.63-0.01c0.16,0,0.27,0.11,0.27,0.26c0.01,0.21,0.02,0.41,0.01,0.61
					c0,0.17-0.1,0.27-0.28,0.28C353.96,68.24,353.85,68.24,353.75,68.25L353.75,68.25z M354.12,67.65c0-0.09-0.01-0.18-0.01-0.27
					c0-0.07-0.03-0.1-0.1-0.1c-0.18,0.01-0.35,0.01-0.53,0.01c-0.06,0-0.09,0.03-0.09,0.09c0,0.19,0.01,0.38,0.02,0.56
					c0,0.03,0.05,0.07,0.08,0.07c0.19,0,0.38,0,0.56-0.01c0.06,0,0.08-0.03,0.08-0.09C354.12,67.84,354.12,67.75,354.12,67.65z"/>
				<path class="st5" d="M352.81,64.41c0,0.09,0.01,0.2,0.01,0.29c0,0.17-0.1,0.27-0.27,0.28c-0.2,0.01-0.4,0.01-0.59,0.01
					c-0.18,0-0.28-0.1-0.29-0.28c-0.01-0.2-0.01-0.39-0.01-0.58c0-0.18,0.1-0.29,0.28-0.3c0.19-0.01,0.39-0.01,0.57-0.01
					c0.18,0,0.29,0.1,0.3,0.28C352.81,64.2,352.81,64.31,352.81,64.41z M352.59,64.41c0-0.09-0.01-0.18-0.01-0.27
					c0-0.07-0.03-0.1-0.1-0.1c-0.18,0.01-0.34,0.01-0.52,0.01c-0.07,0-0.1,0.03-0.1,0.1c0.01,0.18,0.01,0.36,0.01,0.54
					c0,0.06,0.03,0.09,0.09,0.09c0.18-0.01,0.36-0.01,0.54-0.01c0.07,0,0.09-0.03,0.09-0.1C352.6,64.59,352.59,64.5,352.59,64.41z"
					/>
				<path class="st5" d="M352.84,66.04c0,0.09,0.01,0.2,0.01,0.29c0,0.18-0.1,0.28-0.27,0.29c-0.2,0.01-0.4,0.01-0.59,0.01
					c-0.17,0-0.28-0.1-0.28-0.27c-0.01-0.2-0.01-0.41-0.01-0.6c0-0.16,0.1-0.27,0.26-0.28c0.21-0.01,0.41-0.02,0.61-0.01
					c0.16,0,0.26,0.11,0.27,0.27C352.84,65.84,352.84,65.94,352.84,66.04L352.84,66.04z M351.91,66.07c0,0.09,0,0.19,0.01,0.28
					c0,0.06,0.03,0.08,0.08,0.08c0.19,0,0.36-0.01,0.55-0.01c0.06,0,0.09-0.03,0.09-0.09c-0.01-0.18-0.01-0.36-0.01-0.54
					c0-0.07-0.04-0.1-0.11-0.09c-0.18,0.01-0.34,0.01-0.52,0.01c-0.07,0-0.1,0.03-0.1,0.1C351.91,65.89,351.91,65.98,351.91,66.07z"
					/>
				<path class="st5" d="M352.89,67.68c0,0.1,0.01,0.21,0.01,0.3c0,0.17-0.1,0.27-0.27,0.28c-0.2,0.01-0.41,0.01-0.6,0.01
					c-0.17,0-0.27-0.1-0.28-0.26c-0.01-0.21-0.01-0.41-0.01-0.61c0-0.16,0.1-0.27,0.27-0.28c0.2-0.01,0.41-0.01,0.6-0.01
					c0.17,0,0.27,0.11,0.28,0.28C352.89,67.49,352.89,67.58,352.89,67.68z M351.95,67.71c0,0.09,0.01,0.18,0.01,0.27
					c0,0.07,0.03,0.1,0.09,0.09c0.18-0.01,0.36-0.01,0.54-0.01c0.06,0,0.09-0.03,0.09-0.09c-0.01-0.18-0.01-0.36-0.01-0.54
					c0-0.07-0.03-0.1-0.1-0.09c-0.18,0.01-0.34,0.01-0.52,0.01c-0.07,0-0.1,0.03-0.1,0.1C351.94,67.53,351.94,67.62,351.95,67.71z"
					/>
				<path class="st5" d="M352.16,70.24c0-0.11,0.1-0.21,0.22-0.2c0.11,0,0.21,0.09,0.2,0.22c0,0.11-0.1,0.21-0.22,0.2
					C352.25,70.46,352.16,70.35,352.16,70.24z"/>
				<path class="st5" d="M351.84,62.28c0.18,0,0.34-0.01,0.52-0.01c0.07,0,0.15,0.02,0.15,0.1s-0.06,0.1-0.14,0.1
					c-0.35,0.01-0.71,0.02-1.05,0.02c-0.07,0-0.15-0.02-0.15-0.1s0.06-0.1,0.15-0.11C351.49,62.29,351.67,62.28,351.84,62.28z"/>
				<path class="st5" d="M352.9,62.52c-0.08,0-0.16-0.06-0.17-0.15c-0.01-0.09,0.06-0.17,0.16-0.17c0.08,0,0.16,0.06,0.16,0.16
					C353.05,62.43,352.98,62.51,352.9,62.52z"/>
			</g>
		</g>
	</g>
	<path class="st0" d="M373.3,64.09c-0.09-3.27-0.69-6.41-1.7-9.36c-3.63-10.93-12.8-18.81-24.75-21.44
		c-7.09-1.56-13.77-0.65-19.55,1.97c-12.38,4.63-21.04,16.7-20.7,30.66l0.07,3.03c0.44,17.58,15.05,31.48,32.63,31.03l15.12-0.38
		c6.44,0.1,12.87,0.11,19.24,0.33c0-0.01,0.01-0.02,0.01-0.03l0.78,0.01l-0.06-2.66c0-0.02,0-0.04,0-0.07
		C374.06,86.16,374.17,75.08,373.3,64.09z M368.19,93.37l-5.14,0.13l-4.81-4.71l-3.9-3.81c-3.77,2.93-8.46,4.74-13.6,4.87
		c-12.81,0.32-23.45-9.81-23.77-22.61c-0.23-9.35,5.11-17.52,12.97-21.38c0.21-0.1,0.41-0.22,0.61-0.31
		c0.05-0.02,0.1-0.04,0.15-0.06c2.5-1.18,5.23-1.93,8.12-2.12c1.35-0.09,2.69-0.03,4,0.14c0.21,0.03,0.41,0.04,0.61,0.07
		c0.54,0.08,1.07,0.19,1.6,0.31c0.17,0.04,0.32,0.07,0.49,0.11c1.05,0.27,2.07,0.63,3.06,1.04c0.04,0.01,0.07,0.03,0.11,0.04
		c0.15,0.05,0.28,0.14,0.42,0.19c8.16,3.43,14,11.38,14.22,20.8c0.14,5.34-1.56,10.28-4.49,14.27l4.61,3.94l4.6,3.94L368.19,93.37z"
		/>
</g>
</svg>
